<?xml version="1.0" encoding="UTF-8" standalone="no"?>
<svg
   width="60"
   height="60"
   fill="#000000"
   viewBox="0 0 256 256"
   version="1.1"
   id="svg1"
   sodipodi:docname="sample_fingerprint_only.svg"
   xml:space="preserve"
   inkscape:version="1.3.2 (091e20e, 2023-11-25)"
   xmlns:inkscape="http://www.inkscape.org/namespaces/inkscape"
   xmlns:sodipodi="http://sodipodi.sourceforge.net/DTD/sodipodi-0.dtd"
   xmlns="http://www.w3.org/2000/svg"
   xmlns:svg="http://www.w3.org/2000/svg"><defs
     id="defs1" /><sodipodi:namedview
     id="namedview1"
     pagecolor="#505050"
     bordercolor="#eeeeee"
     borderopacity="1"
     inkscape:showpageshadow="0"
     inkscape:pageopacity="0"
     inkscape:pagecheckerboard="0"
     inkscape:deskcolor="#505050"
     inkscape:zoom="3.6208333"
     inkscape:cx="-45.43153"
     inkscape:cy="34.52244"
     inkscape:window-width="1878"
     inkscape:window-height="1016"
     inkscape:window-x="1960"
     inkscape:window-y="35"
     inkscape:window-maximized="1"
     inkscape:current-layer="svg1" /><rect
     style="fill:#1a1a1a;stroke-width:2.37964"
     id="rect1"
     width="256.0238"
     height="255.37842"
     x="-0.011901855"
     y="0.62158203"
     ry="63.630859" /><path
     d="M 126.56484,31.534805 C 74.694986,32.326499 32.306812,74.444565 31.179813,126.30511 a 96.381635,96.381635 0 0 0 12.583261,49.83008 3.725614,3.725614 0 0 0 6.612966,-0.27011 111.10712,111.10712 0 0 0 10.608685,-47.46431 66.995854,66.995854 0 0 1 16.523099,-44.083329 7.6561369,7.6561369 0 0 1 10.059158,-1.480931 7.451228,7.451228 0 0 1 1.359849,11.10233 52.084084,52.084084 0 0 0 -13.039649,34.46193 125.85124,125.85124 0 0 1 -17.175081,63.62417 3.725614,3.725614 0 0 0 0.568155,4.51729 97.173328,97.173328 0 0 0 11.949909,10.29202 3.725614,3.725614 0 0 0 5.420767,-1.127 148.63337,148.63337 0 0 0 10.413092,-20.49086 7.4548655,7.4548655 0 1 1 13.784766,5.68155 164.76529,164.76529 0 0 1 -11.037126,21.92523 3.725614,3.725614 0 0 0 1.760353,5.34626 96.363007,96.363007 0 0 0 23.285083,6.2404 3.725614,3.725614 0 0 0 3.79082,-1.8628 192.67013,192.67013 0 0 0 23.81598,-79.73744 7.451228,7.451228 0 1 1 14.85587,1.08042 207.54463,207.54463 0 0 1 -20.09967,75.21082 3.725614,3.725614 0 0 0 3.80012,5.34626 96.605171,96.605171 0 0 0 19.18691,-4.61045 3.725614,3.725614 0 0 0 2.1888,-2.07703 230.32678,230.32678 0 0 0 17.80844,-87.71957 c 0.2049,-28.5382 -21.79485,-52.782638 -50.29579,-53.769925 a 52.829207,52.829207 0 0 0 -14.90245,1.611328 7.451228,7.451228 0 0 1 -9.16501,-5.784016 7.6654508,7.6654508 0 0 1 5.85853,-8.745877 67.107624,67.107624 0 0 1 83.40716,65.04922 246.65427,246.65427 0 0 1 -9.92875,69.51064 3.725614,3.725614 0 0 0 6.02618,3.86531 96.865965,96.865965 0 0 0 -64.6394,-170.241915 z m 1.48093,67.061052 a 29.851482,29.851482 0 0 1 22.21398,9.938073 7.451228,7.451228 0 0 1 -1.15495,10.98125 7.6933929,7.6933929 0 0 1 -10.13367,-1.24808 14.902455,14.902455 0 0 0 -15.62894,-4.00503 15.265703,15.265703 0 0 0 -10.24544,14.59509 164.75597,164.75597 0 0 1 -2.97118,30.73631 7.451228,7.451228 0 0 1 -7.22769,6.06344 7.162493,7.162493 0 0 1 -1.3971,-0.13035 7.730649,7.730649 0 0 1 -5.877158,-8.99736 150.06773,150.06773 0 0 0 2.617244,-28.12837 29.804913,29.804913 0 0 1 29.804904,-29.804921 z"
     id="path1"
     style="fill:#cccccc;stroke-width:0.931403" /></svg>
