<?xml version="1.0" encoding="UTF-8" standalone="no"?>
<svg
   width="60"
   height="60"
   fill="#000000"
   viewBox="0 0 256 256"
   version="1.1"
   id="svg1"
   sodipodi:docname="sample_fingerprint_and_syringe.svg"
   xml:space="preserve"
   inkscape:version="1.3.2 (091e20e, 2023-11-25)"
   xmlns:inkscape="http://www.inkscape.org/namespaces/inkscape"
   xmlns:sodipodi="http://sodipodi.sourceforge.net/DTD/sodipodi-0.dtd"
   xmlns="http://www.w3.org/2000/svg"
   xmlns:svg="http://www.w3.org/2000/svg"><defs
     id="defs1" /><sodipodi:namedview
     id="namedview1"
     pagecolor="#505050"
     bordercolor="#eeeeee"
     borderopacity="1"
     inkscape:showpageshadow="0"
     inkscape:pageopacity="0"
     inkscape:pagecheckerboard="0"
     inkscape:deskcolor="#505050"
     inkscape:zoom="2.5603158"
     inkscape:cx="80.654113"
     inkscape:cy="82.802285"
     inkscape:window-width="1878"
     inkscape:window-height="1016"
     inkscape:window-x="1960"
     inkscape:window-y="35"
     inkscape:window-maximized="1"
     inkscape:current-layer="svg1" /><rect
     style="fill:#1a1a1a;stroke-width:2.37964"
     id="rect1"
     width="256.0238"
     height="255.37842"
     x="-0.011901855"
     y="0.62158203"
     ry="63.630859" /><path
     d="M 79.464802,12.424212 C 42.656028,12.986027 12.575807,42.874569 11.776047,79.676737 a 68.395983,68.395983 0 0 0 8.929549,35.361273 2.6438339,2.6438339 0 0 0 4.692806,-0.19168 78.845736,78.845736 0 0 0 7.528316,-33.682436 47.542743,47.542743 0 0 1 11.725404,-31.283166 5.4330787,5.4330787 0 0 1 7.138352,-1.050923 5.2876678,5.2876678 0 0 1 0.964999,7.878625 36.960798,36.960798 0 0 0 -9.253419,24.455464 89.30871,89.30871 0 0 1 -12.188074,45.150066 2.6438339,2.6438339 0 0 0 0.403184,3.20564 68.957798,68.957798 0 0 0 8.480098,7.3036 2.6438339,2.6438339 0 0 0 3.846778,-0.79976 105.47575,105.47575 0 0 0 7.389516,-14.54108 5.2902491,5.2902491 0 1 1 9.782185,4.03184 116.92356,116.92356 0 0 1 -7.832358,15.55896 2.6438339,2.6438339 0 0 0 1.249212,3.7939 68.382764,68.382764 0 0 0 16.523961,4.42842 2.6438339,2.6438339 0 0 0 2.690102,-1.32191 136.72587,136.72587 0 0 0 16.900706,-56.584648 5.2876678,5.2876678 0 1 1 10.542276,0.766712 147.28137,147.28137 0 0 1 -14.263473,53.372386 2.6438339,2.6438339 0 0 0 2.696711,3.7939 68.554613,68.554613 0 0 0 13.615742,-3.27174 2.6438339,2.6438339 0 0 0 1.55325,-1.47394 163.44843,163.44843 0 0 0 12.63753,-62.249059 C 117.67481,62.075413 102.06297,44.870663 81.837643,44.170047 a 37.489565,37.489565 0 0 0 -10.575333,1.143458 5.2876678,5.2876678 0 0 1 -6.503831,-4.104552 5.4396882,5.4396882 0 0 1 4.157428,-6.206399 47.622059,47.622059 0 0 1 59.188823,46.16134 175.03502,175.03502 0 0 1 -7.04581,49.327326 2.6438339,2.6438339 0 0 0 4.2764,2.74297 A 68.739682,68.739682 0 0 0 79.464802,12.424212 Z m 1.050924,47.58901 a 21.183719,21.183719 0 0 1 15.76386,7.052427 5.2876678,5.2876678 0 0 1 -0.819589,7.7927 5.459517,5.459517 0 0 1 -7.191228,-0.885684 10.575335,10.575335 0 0 0 -11.09088,-2.842121 10.833109,10.833109 0 0 0 -7.270543,10.35722 116.91695,116.91695 0 0 1 -2.108458,21.811626 5.2876678,5.2876678 0 0 1 -5.129038,4.30284 5.0827707,5.0827707 0 0 1 -0.991438,-0.0925 5.4859553,5.4859553 0 0 1 -4.170648,-6.38486 106.49363,106.49363 0 0 0 1.857294,-19.960939 21.150672,21.150672 0 0 1 21.150668,-21.150672 z"
     id="path1"
     style="fill:#cccccc;stroke-width:0.660958" /><g
     style="fill:#cccccc"
     id="g1"
     transform="matrix(0.69446098,0,0,0.69446098,81.034196,73.893319)"><path
       d="m 237.66,77.6 a 8,8 0 0 1 -11.32,0 L 208,59.25 179.3,88 l 34.35,34.35 a 8.0044488,8.0044488 0 0 1 -11.32,11.32 l -6.33,-6.4 -84,84 A 16,16 0 0 1 100.65,216 H 51.26 L 29.6,237.66 a 8,8 0 0 1 -11.72,-0.43 8.21,8.21 0 0 1 0.61,-11.1 L 39.94,204.67 V 155.28 A 16,16 0 0 1 44.63,144 l 15.18,-15.18 a 4,4 0 0 1 5.66,0 l 28.83,28.81 a 8.0044488,8.0044488 0 1 0 11.32,-11.32 L 76.78,117.47 a 4,4 0 0 1 0,-5.66 l 11,-11 a 4,4 0 0 1 5.66,0 l 28.84,28.84 A 8.0044488,8.0044488 0 1 0 133.6,118.33 L 104.79,89.46 a 4,4 0 0 1 0,-5.66 l 23.87,-23.86 -6.35,-6.35 a 8,8 0 0 1 0.18,-11.49 8.22,8.22 0 0 1 11.37,0.41 L 168,76.63 196.69,47.93 178.33,29.58 a 8,8 0 0 1 0.17,-11.49 8.23,8.23 0 0 1 11.38,0.41 l 47.78,47.78 a 8,8 0 0 1 0,11.32 z"
       id="path1-5"
       style="fill:#cccccc" /></g></svg>
