<?xml version="1.0" encoding="UTF-8" standalone="no"?>
<svg
   width="60"
   height="60"
   fill="#000000"
   viewBox="0 0 256 256"
   version="1.1"
   id="svg1"
   sodipodi:docname="sample_syringe_only.svg"
   xml:space="preserve"
   inkscape:version="1.3.2 (091e20e, 2023-11-25)"
   xmlns:inkscape="http://www.inkscape.org/namespaces/inkscape"
   xmlns:sodipodi="http://sodipodi.sourceforge.net/DTD/sodipodi-0.dtd"
   xmlns="http://www.w3.org/2000/svg"
   xmlns:svg="http://www.w3.org/2000/svg"><defs
     id="defs1" /><sodipodi:namedview
     id="namedview1"
     pagecolor="#505050"
     bordercolor="#eeeeee"
     borderopacity="1"
     inkscape:showpageshadow="0"
     inkscape:pageopacity="0"
     inkscape:pagecheckerboard="0"
     inkscape:deskcolor="#505050"
     inkscape:zoom="5.1206316"
     inkscape:cx="45.013978"
     inkscape:cy="54.485466"
     inkscape:window-width="1878"
     inkscape:window-height="1016"
     inkscape:window-x="1960"
     inkscape:window-y="35"
     inkscape:window-maximized="1"
     inkscape:current-layer="svg1" /><rect
     style="fill:#1a1a1a;stroke-width:2.37964"
     id="rect1"
     width="256.0238"
     height="255.37842"
     x="-0.011901855"
     y="0.62158203"
     ry="63.630859" /><g
     style="fill:#cccccc"
     id="g1"
     transform="matrix(0.76941231,0,0,0.7317656,29.509676,34.330147)"><path
       d="m 237.66,77.6 a 8,8 0 0 1 -11.32,0 L 208,59.25 179.3,88 l 34.35,34.35 a 8.0044488,8.0044488 0 0 1 -11.32,11.32 l -6.33,-6.4 -84,84 A 16,16 0 0 1 100.65,216 H 51.26 L 29.6,237.66 a 8,8 0 0 1 -11.72,-0.43 8.21,8.21 0 0 1 0.61,-11.1 L 39.94,204.67 V 155.28 A 16,16 0 0 1 44.63,144 l 15.18,-15.18 a 4,4 0 0 1 5.66,0 l 28.83,28.81 a 8.0044488,8.0044488 0 1 0 11.32,-11.32 L 76.78,117.47 a 4,4 0 0 1 0,-5.66 l 11,-11 a 4,4 0 0 1 5.66,0 l 28.84,28.84 A 8.0044488,8.0044488 0 1 0 133.6,118.33 L 104.79,89.46 a 4,4 0 0 1 0,-5.66 l 23.87,-23.86 -6.35,-6.35 a 8,8 0 0 1 0.18,-11.49 8.22,8.22 0 0 1 11.37,0.41 L 168,76.63 196.69,47.93 178.33,29.58 a 8,8 0 0 1 0.17,-11.49 8.23,8.23 0 0 1 11.38,0.41 l 47.78,47.78 a 8,8 0 0 1 0,11.32 z"
       id="path1-5"
       style="fill:#cccccc" /></g></svg>
